<svg width="131" height="49" viewBox="0 0 131 49" fill="none" xmlns="http://www.w3.org/2000/svg">
<rect width="131" height="49" rx="5" fill="#F6E0DB"/>
<path d="M27.7591 21.9414C27.7447 19.8168 28.4473 17.2221 26.3289 17.0609C26.3003 17.0588 26.2717 17.0567 26.2429 17.0548C24.6914 16.9491 22.9938 17.8357 22.3723 17.8357C21.7154 17.8357 20.2133 17.0914 19.0314 17.0914C16.5922 17.124 14 18.7711 14 22.1224C14 23.1127 14.2095 24.1355 14.6286 25.1889C15.189 26.5758 17.2091 29.9738 19.3162 29.9189C20.4181 29.8965 21.1974 29.2437 22.6312 29.2437C24.0227 29.2437 24.7431 29.9189 25.9721 29.9189C26.611 29.9109 27.2229 29.6264 27.7807 29.1946C29.8376 27.6023 27.7591 24.5425 27.7591 21.9414ZM27.5096 27.3709C27.1729 27.7755 26.8339 28.0948 26.5231 28.3002C26.2759 28.4629 26.0852 28.532 25.958 28.5361C25.7461 28.534 25.5413 28.4893 25.141 28.3571C25.1128 28.347 25.0822 28.3368 25.0422 28.3246L24.9386 28.29C24.5289 28.1538 24.284 28.0806 23.9709 28.0094C23.533 27.9118 23.0974 27.8589 22.6312 27.8589C22.1557 27.8589 21.7083 27.9098 21.2633 28.0053C20.9361 28.0765 20.6606 28.1558 20.258 28.286C20.2415 28.2921 20.0673 28.349 20.0179 28.3653C19.9355 28.3917 19.8719 28.412 19.813 28.4303C19.5682 28.5035 19.4128 28.534 19.2739 28.5361C19.2574 28.5361 19.2433 28.534 19.2315 28.532C19.2056 28.5279 19.1726 28.5198 19.135 28.5056C19.029 28.469 18.9019 28.4019 18.7583 28.3063C18.4286 28.0846 18.0661 27.7369 17.6964 27.2916C17.049 26.5066 16.4368 25.4655 16.1425 24.7354C15.7799 23.8244 15.601 22.952 15.601 22.1203C15.601 20.8961 16.0201 19.9648 16.7405 19.3324C17.3597 18.7915 18.1932 18.4885 19.0431 18.4722C19.182 18.4742 19.3845 18.5027 19.6412 18.5637C19.8436 18.6105 20.0649 18.6735 20.364 18.765C20.4534 18.7935 20.7618 18.8891 20.7995 18.9013C20.9808 18.9582 21.1174 18.9989 21.2516 19.0355C21.6801 19.1534 22.012 19.2185 22.3723 19.2185C22.7372 19.2185 23.0503 19.1514 23.4953 19.0192C23.6625 18.9704 24.2699 18.7752 24.3782 18.7427C24.9809 18.5576 25.4259 18.458 25.8097 18.4336C25.9227 18.4254 26.0239 18.4254 26.1205 18.4315C26.7854 18.4771 26.9685 19.2508 26.6581 19.8406C26.3272 20.4693 26.1591 21.1682 26.1605 21.9332C26.1534 22.2322 26.1817 22.5779 26.2806 22.9866C26.4313 23.6068 26.7185 24.221 27.1729 24.7964C27.1846 24.8112 27.1964 24.826 27.2083 24.8407C27.8101 25.5838 28.1211 26.6357 27.5096 27.3709ZM25.2847 15.7391C26.4688 14.5248 24.8563 13.0289 23.5674 14.1313C23.4962 14.1922 23.4288 14.2544 23.3658 14.3177C22.1131 15.5428 23.7049 17.1511 25.0181 15.991C25.1088 15.9109 25.1977 15.8269 25.2847 15.7391Z" fill="black"/>
<path d="M43.8027 21H42.2695L42.2793 19.9453H43.8027C44.2161 19.9453 44.5628 19.8542 44.8428 19.6719C45.1227 19.4863 45.3343 19.221 45.4775 18.876C45.6208 18.5277 45.6924 18.111 45.6924 17.626V17.2598C45.6924 16.8854 45.6517 16.555 45.5703 16.2686C45.4889 15.9821 45.3685 15.7412 45.209 15.5459C45.0527 15.3506 44.859 15.2025 44.6279 15.1016C44.3968 15.0007 44.1315 14.9502 43.832 14.9502H42.2402V13.8906H43.832C44.3073 13.8906 44.7402 13.9704 45.1309 14.1299C45.5247 14.2894 45.8649 14.5189 46.1514 14.8184C46.4411 15.1146 46.6624 15.4694 46.8154 15.8828C46.9717 16.2962 47.0498 16.7585 47.0498 17.2695V17.626C47.0498 18.1338 46.9717 18.596 46.8154 19.0127C46.6624 19.4261 46.4411 19.7809 46.1514 20.0771C45.8649 20.3734 45.5231 20.6012 45.126 20.7607C44.7288 20.9202 44.2878 21 43.8027 21ZM43.0215 13.8906V21H41.6787V13.8906H43.0215ZM47.8652 18.4121V18.3096C47.8652 17.9222 47.9206 17.5658 48.0312 17.2402C48.1419 16.9115 48.3031 16.6266 48.5146 16.3857C48.7262 16.1449 48.985 15.9577 49.291 15.8242C49.597 15.6875 49.9453 15.6191 50.3359 15.6191C50.7331 15.6191 51.0846 15.6875 51.3906 15.8242C51.6999 15.9577 51.9603 16.1449 52.1719 16.3857C52.3835 16.6266 52.5446 16.9115 52.6553 17.2402C52.766 17.5658 52.8213 17.9222 52.8213 18.3096V18.4121C52.8213 18.7962 52.766 19.1527 52.6553 19.4814C52.5446 19.807 52.3835 20.0918 52.1719 20.3359C51.9603 20.5768 51.7015 20.764 51.3955 20.8975C51.0895 21.0309 50.7396 21.0977 50.3457 21.0977C49.9551 21.0977 49.6051 21.0309 49.2959 20.8975C48.9867 20.764 48.7262 20.5768 48.5146 20.3359C48.3031 20.0918 48.1419 19.807 48.0312 19.4814C47.9206 19.1527 47.8652 18.7962 47.8652 18.4121ZM49.1543 18.3096V18.4121C49.1543 18.6432 49.1771 18.8597 49.2227 19.0615C49.2682 19.2633 49.3382 19.4408 49.4326 19.5938C49.527 19.7467 49.6491 19.8672 49.7988 19.9551C49.9518 20.0397 50.1341 20.082 50.3457 20.082C50.554 20.082 50.7331 20.0397 50.8828 19.9551C51.0326 19.8672 51.1546 19.7467 51.249 19.5938C51.3467 19.4408 51.4183 19.2633 51.4639 19.0615C51.5094 18.8597 51.5322 18.6432 51.5322 18.4121V18.3096C51.5322 18.0817 51.5094 17.8685 51.4639 17.6699C51.4183 17.4681 51.3467 17.2907 51.249 17.1377C51.1546 16.9814 51.0309 16.8594 50.8779 16.7715C50.7282 16.6803 50.5475 16.6348 50.3359 16.6348C50.1276 16.6348 49.9486 16.6803 49.7988 16.7715C49.6491 16.8594 49.527 16.9814 49.4326 17.1377C49.3382 17.2907 49.2682 17.4681 49.2227 17.6699C49.1771 17.8685 49.1543 18.0817 49.1543 18.3096ZM55.2285 19.7305L56.3857 15.7168H57.2061L56.9619 17.1035L55.7949 21H55.0869L55.2285 19.7305ZM54.5889 15.7168L55.458 19.7402L55.5361 21H54.7207L53.334 15.7168H54.5889ZM58.2803 19.6816L59.1299 15.7168H60.3799L59.0029 21H58.1875L58.2803 19.6816ZM57.333 15.7168L58.4805 19.6914L58.6318 21H57.9238L56.7471 17.1035L56.5078 15.7168H57.333ZM62.4062 16.8447V21H61.1172V15.7168H62.3281L62.4062 16.8447ZM62.2012 18.168H61.8203C61.8236 17.7839 61.8757 17.4355 61.9766 17.123C62.0775 16.8105 62.2191 16.542 62.4014 16.3174C62.5869 16.0928 62.8066 15.9202 63.0605 15.7998C63.3145 15.6794 63.5977 15.6191 63.9102 15.6191C64.1641 15.6191 64.3936 15.6549 64.5986 15.7266C64.8037 15.7982 64.9795 15.9121 65.126 16.0684C65.2757 16.2246 65.3896 16.4297 65.4678 16.6836C65.5492 16.9342 65.5898 17.2435 65.5898 17.6113V21H64.291V17.6016C64.291 17.3607 64.2552 17.1702 64.1836 17.0303C64.1152 16.8903 64.0143 16.791 63.8809 16.7324C63.7507 16.6738 63.5895 16.6445 63.3975 16.6445C63.1989 16.6445 63.0247 16.6852 62.875 16.7666C62.7285 16.8447 62.6048 16.9538 62.5039 17.0938C62.4062 17.2337 62.3314 17.3949 62.2793 17.5771C62.2272 17.7594 62.2012 17.9564 62.2012 18.168ZM68.0947 13.5V21H66.8008V13.5H68.0947ZM69.0957 18.4121V18.3096C69.0957 17.9222 69.151 17.5658 69.2617 17.2402C69.3724 16.9115 69.5335 16.6266 69.7451 16.3857C69.9567 16.1449 70.2155 15.9577 70.5215 15.8242C70.8275 15.6875 71.1758 15.6191 71.5664 15.6191C71.9635 15.6191 72.3151 15.6875 72.6211 15.8242C72.9303 15.9577 73.1908 16.1449 73.4023 16.3857C73.6139 16.6266 73.7751 16.9115 73.8857 17.2402C73.9964 17.5658 74.0518 17.9222 74.0518 18.3096V18.4121C74.0518 18.7962 73.9964 19.1527 73.8857 19.4814C73.7751 19.807 73.6139 20.0918 73.4023 20.3359C73.1908 20.5768 72.932 20.764 72.626 20.8975C72.32 21.0309 71.9701 21.0977 71.5762 21.0977C71.1855 21.0977 70.8356 21.0309 70.5264 20.8975C70.2171 20.764 69.9567 20.5768 69.7451 20.3359C69.5335 20.0918 69.3724 19.807 69.2617 19.4814C69.151 19.1527 69.0957 18.7962 69.0957 18.4121ZM70.3848 18.3096V18.4121C70.3848 18.6432 70.4076 18.8597 70.4531 19.0615C70.4987 19.2633 70.5687 19.4408 70.6631 19.5938C70.7575 19.7467 70.8796 19.8672 71.0293 19.9551C71.1823 20.0397 71.3646 20.082 71.5762 20.082C71.7845 20.082 71.9635 20.0397 72.1133 19.9551C72.263 19.8672 72.3851 19.7467 72.4795 19.5938C72.5771 19.4408 72.6488 19.2633 72.6943 19.0615C72.7399 18.8597 72.7627 18.6432 72.7627 18.4121V18.3096C72.7627 18.0817 72.7399 17.8685 72.6943 17.6699C72.6488 17.4681 72.5771 17.2907 72.4795 17.1377C72.3851 16.9814 72.2614 16.8594 72.1084 16.7715C71.9587 16.6803 71.778 16.6348 71.5664 16.6348C71.3581 16.6348 71.179 16.6803 71.0293 16.7715C70.8796 16.8594 70.7575 16.9814 70.6631 17.1377C70.5687 17.2907 70.4987 17.4681 70.4531 17.6699C70.4076 17.8685 70.3848 18.0817 70.3848 18.3096ZM77.8994 19.877V17.4404C77.8994 17.2614 77.8685 17.1068 77.8066 16.9766C77.7448 16.8464 77.6504 16.7454 77.5234 16.6738C77.3965 16.6022 77.2354 16.5664 77.04 16.5664C76.8675 16.5664 76.7161 16.5957 76.5859 16.6543C76.459 16.7129 76.3613 16.7959 76.293 16.9033C76.2246 17.0075 76.1904 17.1279 76.1904 17.2646H74.8965C74.8965 17.0465 74.9486 16.8398 75.0527 16.6445C75.1569 16.446 75.305 16.2702 75.4971 16.1172C75.6924 15.9609 75.9251 15.8389 76.1953 15.751C76.4688 15.6631 76.7747 15.6191 77.1133 15.6191C77.5137 15.6191 77.8701 15.6875 78.1826 15.8242C78.4984 15.9577 78.7458 16.1595 78.9248 16.4297C79.1071 16.6999 79.1982 17.04 79.1982 17.4502V19.7549C79.1982 20.0186 79.2145 20.2448 79.2471 20.4336C79.2829 20.6191 79.335 20.7803 79.4033 20.917V21H78.0898C78.028 20.8665 77.9808 20.6973 77.9482 20.4922C77.9157 20.2839 77.8994 20.0788 77.8994 19.877ZM78.0801 17.7822L78.0898 18.5488H77.2744C77.0726 18.5488 76.8952 18.57 76.7422 18.6123C76.5892 18.6514 76.4639 18.71 76.3662 18.7881C76.2686 18.863 76.1953 18.9541 76.1465 19.0615C76.0977 19.1657 76.0732 19.2845 76.0732 19.418C76.0732 19.5482 76.1025 19.6654 76.1611 19.7695C76.223 19.8737 76.3109 19.9567 76.4248 20.0186C76.542 20.0771 76.6787 20.1064 76.835 20.1064C77.0628 20.1064 77.2614 20.0609 77.4307 19.9697C77.5999 19.8753 77.7318 19.7614 77.8262 19.6279C77.9206 19.4945 77.971 19.3675 77.9775 19.2471L78.3486 19.8037C78.3031 19.9372 78.2347 20.0788 78.1436 20.2285C78.0524 20.3783 77.9352 20.5182 77.792 20.6484C77.6488 20.7786 77.4762 20.8861 77.2744 20.9707C77.0726 21.0553 76.8382 21.0977 76.5713 21.0977C76.2295 21.0977 75.9235 21.0293 75.6533 20.8926C75.3831 20.7559 75.1699 20.5687 75.0137 20.3311C74.8574 20.0934 74.7793 19.8232 74.7793 19.5205C74.7793 19.2406 74.8314 18.9932 74.9355 18.7783C75.0397 18.5635 75.1943 18.3828 75.3994 18.2363C75.6045 18.0866 75.8584 17.9743 76.1611 17.8994C76.4671 17.8213 76.8171 17.7822 77.2109 17.7822H78.0801ZM83.5293 19.877V13.5H84.8281V21H83.6562L83.5293 19.877ZM80.1357 18.4219V18.3193C80.1357 17.9157 80.1813 17.5495 80.2725 17.2207C80.3669 16.8887 80.5036 16.6038 80.6826 16.3662C80.8617 16.1286 81.0781 15.9447 81.332 15.8145C81.5892 15.6842 81.8805 15.6191 82.2061 15.6191C82.5218 15.6191 82.7969 15.6826 83.0312 15.8096C83.2689 15.9365 83.4707 16.1172 83.6367 16.3516C83.806 16.5859 83.9411 16.8643 84.042 17.1865C84.1429 17.5055 84.2161 17.8571 84.2617 18.2412V18.5195C84.2161 18.8939 84.1429 19.2373 84.042 19.5498C83.9411 19.8623 83.806 20.1357 83.6367 20.3701C83.4707 20.6012 83.2689 20.7803 83.0312 20.9072C82.7936 21.0342 82.5153 21.0977 82.1963 21.0977C81.874 21.0977 81.5843 21.0309 81.3271 20.8975C81.0732 20.764 80.8568 20.5768 80.6777 20.3359C80.502 20.0951 80.3669 19.8118 80.2725 19.4863C80.1813 19.1608 80.1357 18.806 80.1357 18.4219ZM81.4297 18.3193V18.4219C81.4297 18.6497 81.4492 18.863 81.4883 19.0615C81.5273 19.2601 81.5908 19.4359 81.6787 19.5889C81.7666 19.7386 81.8789 19.8558 82.0156 19.9404C82.1556 20.0251 82.3249 20.0674 82.5234 20.0674C82.7773 20.0674 82.9857 20.012 83.1484 19.9014C83.3145 19.7874 83.443 19.6328 83.5342 19.4375C83.6253 19.2389 83.6839 19.016 83.71 18.7686V18.002C83.6969 17.8066 83.6628 17.626 83.6074 17.46C83.5553 17.2939 83.4805 17.1507 83.3828 17.0303C83.2884 16.9098 83.1712 16.8154 83.0312 16.7471C82.8913 16.6787 82.7253 16.6445 82.5332 16.6445C82.3346 16.6445 82.1654 16.6885 82.0254 16.7764C81.8854 16.861 81.7715 16.9798 81.6836 17.1328C81.5957 17.2858 81.5306 17.4632 81.4883 17.665C81.4492 17.8669 81.4297 18.085 81.4297 18.3193ZM88.2559 18.4121V18.3096C88.2559 17.9222 88.3112 17.5658 88.4219 17.2402C88.5326 16.9115 88.6937 16.6266 88.9053 16.3857C89.1169 16.1449 89.3757 15.9577 89.6816 15.8242C89.9876 15.6875 90.3359 15.6191 90.7266 15.6191C91.1237 15.6191 91.4753 15.6875 91.7812 15.8242C92.0905 15.9577 92.3509 16.1449 92.5625 16.3857C92.7741 16.6266 92.9352 16.9115 93.0459 17.2402C93.1566 17.5658 93.2119 17.9222 93.2119 18.3096V18.4121C93.2119 18.7962 93.1566 19.1527 93.0459 19.4814C92.9352 19.807 92.7741 20.0918 92.5625 20.3359C92.3509 20.5768 92.0921 20.764 91.7861 20.8975C91.4801 21.0309 91.1302 21.0977 90.7363 21.0977C90.3457 21.0977 89.9958 21.0309 89.6865 20.8975C89.3773 20.764 89.1169 20.5768 88.9053 20.3359C88.6937 20.0918 88.5326 19.807 88.4219 19.4814C88.3112 19.1527 88.2559 18.7962 88.2559 18.4121ZM89.5449 18.3096V18.4121C89.5449 18.6432 89.5677 18.8597 89.6133 19.0615C89.6589 19.2633 89.7288 19.4408 89.8232 19.5938C89.9176 19.7467 90.0397 19.8672 90.1895 19.9551C90.3424 20.0397 90.5247 20.082 90.7363 20.082C90.9447 20.082 91.1237 20.0397 91.2734 19.9551C91.4232 19.8672 91.5452 19.7467 91.6396 19.5938C91.7373 19.4408 91.8089 19.2633 91.8545 19.0615C91.9001 18.8597 91.9229 18.6432 91.9229 18.4121V18.3096C91.9229 18.0817 91.9001 17.8685 91.8545 17.6699C91.8089 17.4681 91.7373 17.2907 91.6396 17.1377C91.5452 16.9814 91.4215 16.8594 91.2686 16.7715C91.1188 16.6803 90.9382 16.6348 90.7266 16.6348C90.5182 16.6348 90.3392 16.6803 90.1895 16.7715C90.0397 16.8594 89.9176 16.9814 89.8232 17.1377C89.7288 17.2907 89.6589 17.4681 89.6133 17.6699C89.5677 17.8685 89.5449 18.0817 89.5449 18.3096ZM95.4141 16.8447V21H94.125V15.7168H95.3359L95.4141 16.8447ZM95.209 18.168H94.8281C94.8314 17.7839 94.8835 17.4355 94.9844 17.123C95.0853 16.8105 95.2269 16.542 95.4092 16.3174C95.5947 16.0928 95.8145 15.9202 96.0684 15.7998C96.3223 15.6794 96.6055 15.6191 96.918 15.6191C97.1719 15.6191 97.4014 15.6549 97.6064 15.7266C97.8115 15.7982 97.9873 15.9121 98.1338 16.0684C98.2835 16.2246 98.3975 16.4297 98.4756 16.6836C98.557 16.9342 98.5977 17.2435 98.5977 17.6113V21H97.2988V17.6016C97.2988 17.3607 97.263 17.1702 97.1914 17.0303C97.123 16.8903 97.0221 16.791 96.8887 16.7324C96.7585 16.6738 96.5973 16.6445 96.4053 16.6445C96.2067 16.6445 96.0326 16.6852 95.8828 16.7666C95.7363 16.8447 95.6126 16.9538 95.5117 17.0938C95.4141 17.2337 95.3392 17.3949 95.2871 17.5771C95.235 17.7594 95.209 17.9564 95.209 18.168ZM104.726 15.7168V16.6445H101.698V15.7168H104.726ZM102.509 14.418H103.803V19.4766C103.803 19.6328 103.824 19.7533 103.866 19.8379C103.909 19.9225 103.972 19.9795 104.057 20.0088C104.141 20.0381 104.242 20.0527 104.359 20.0527C104.444 20.0527 104.522 20.0479 104.594 20.0381C104.665 20.0283 104.726 20.0186 104.774 20.0088L104.779 20.9756C104.672 21.0114 104.55 21.0407 104.413 21.0635C104.28 21.0863 104.128 21.0977 103.959 21.0977C103.669 21.0977 103.415 21.0488 103.197 20.9512C102.979 20.8503 102.81 20.6891 102.689 20.4678C102.569 20.2432 102.509 19.9469 102.509 19.5791V14.418ZM106.85 13.5V21H105.556V13.5H106.85ZM106.645 18.168H106.264C106.264 17.8001 106.312 17.4616 106.41 17.1523C106.508 16.8431 106.646 16.5745 106.825 16.3467C107.004 16.1156 107.217 15.9365 107.465 15.8096C107.715 15.6826 107.992 15.6191 108.295 15.6191C108.555 15.6191 108.791 15.6566 109.003 15.7314C109.218 15.8031 109.402 15.9186 109.555 16.0781C109.708 16.2376 109.825 16.446 109.906 16.7031C109.991 16.957 110.033 17.2663 110.033 17.6309V21H108.734V17.6211C108.734 17.377 108.699 17.1849 108.627 17.0449C108.555 16.9017 108.453 16.7992 108.319 16.7373C108.189 16.6755 108.028 16.6445 107.836 16.6445C107.628 16.6445 107.449 16.6852 107.299 16.7666C107.149 16.8447 107.025 16.9538 106.928 17.0938C106.833 17.2337 106.762 17.3949 106.713 17.5771C106.667 17.7594 106.645 17.9564 106.645 18.168ZM113.544 21.0977C113.144 21.0977 112.784 21.0326 112.465 20.9023C112.146 20.7721 111.874 20.5915 111.649 20.3604C111.428 20.126 111.257 19.8542 111.137 19.5449C111.02 19.2324 110.961 18.8971 110.961 18.5391V18.3438C110.961 17.9368 111.02 17.5674 111.137 17.2354C111.254 16.9001 111.42 16.612 111.635 16.3711C111.85 16.1302 112.107 15.9447 112.406 15.8145C112.706 15.6842 113.036 15.6191 113.397 15.6191C113.772 15.6191 114.102 15.6826 114.389 15.8096C114.675 15.9333 114.914 16.109 115.106 16.3369C115.299 16.5648 115.443 16.8382 115.541 17.1572C115.639 17.473 115.688 17.8229 115.688 18.207V18.749H111.547V17.8604H114.418V17.7627C114.411 17.5576 114.372 17.3704 114.301 17.2012C114.229 17.0286 114.118 16.8919 113.969 16.791C113.819 16.6868 113.625 16.6348 113.388 16.6348C113.196 16.6348 113.028 16.6771 112.885 16.7617C112.745 16.8431 112.628 16.9603 112.533 17.1133C112.442 17.263 112.374 17.4421 112.328 17.6504C112.283 17.8587 112.26 18.0898 112.26 18.3438V18.5391C112.26 18.7604 112.289 18.9655 112.348 19.1543C112.41 19.3431 112.499 19.5075 112.616 19.6475C112.737 19.7842 112.88 19.8916 113.046 19.9697C113.215 20.0446 113.407 20.082 113.622 20.082C113.892 20.082 114.136 20.0299 114.354 19.9258C114.576 19.8184 114.768 19.6605 114.931 19.4521L115.58 20.126C115.469 20.2887 115.32 20.445 115.131 20.5947C114.945 20.7445 114.721 20.8665 114.457 20.9609C114.193 21.0521 113.889 21.0977 113.544 21.0977ZM44.5059 26.9697L42.4795 33H41.0586L43.7148 25.8906H44.623L44.5059 26.9697ZM46.2002 33L44.1641 26.9697L44.042 25.8906H44.9551L47.626 33H46.2002ZM46.1074 30.3584V31.418H42.2939V30.3584H46.1074ZM49.4229 28.7324V35.0312H48.1289V27.7168H49.3252L49.4229 28.7324ZM52.8164 30.3047V30.4072C52.8164 30.7913 52.7708 31.1478 52.6797 31.4766C52.5918 31.8021 52.4616 32.0869 52.2891 32.3311C52.1165 32.5719 51.9017 32.7607 51.6445 32.8975C51.3906 33.0309 51.0977 33.0977 50.7656 33.0977C50.4401 33.0977 50.1569 33.0358 49.916 32.9121C49.6751 32.7852 49.4717 32.6061 49.3057 32.375C49.1396 32.1439 49.0062 31.8753 48.9053 31.5693C48.8076 31.2601 48.7344 30.9232 48.6855 30.5586V30.2314C48.7344 29.8441 48.8076 29.4925 48.9053 29.1768C49.0062 28.8577 49.1396 28.5827 49.3057 28.3516C49.4717 28.1172 49.6735 27.9365 49.9111 27.8096C50.152 27.6826 50.4336 27.6191 50.7559 27.6191C51.0911 27.6191 51.3857 27.6826 51.6396 27.8096C51.8968 27.9365 52.1133 28.1188 52.2891 28.3564C52.4648 28.5941 52.5967 28.8773 52.6846 29.2061C52.7725 29.5348 52.8164 29.901 52.8164 30.3047ZM51.5225 30.4072V30.3047C51.5225 30.0703 51.5013 29.8538 51.459 29.6553C51.4167 29.4535 51.3516 29.2777 51.2637 29.1279C51.1758 28.9749 51.0618 28.8561 50.9219 28.7715C50.7819 28.6868 50.6126 28.6445 50.4141 28.6445C50.2155 28.6445 50.0446 28.6771 49.9014 28.7422C49.7581 28.8073 49.641 28.9001 49.5498 29.0205C49.4587 29.141 49.387 29.2842 49.335 29.4502C49.2861 29.613 49.2536 29.7936 49.2373 29.9922V30.8027C49.2666 31.0436 49.3236 31.2601 49.4082 31.4521C49.4928 31.6442 49.6165 31.7972 49.7793 31.9111C49.9453 32.0251 50.1602 32.082 50.4238 32.082C50.6224 32.082 50.7917 32.0381 50.9316 31.9502C51.0716 31.8623 51.1855 31.7419 51.2734 31.5889C51.3613 31.4326 51.4248 31.2536 51.4639 31.0518C51.5029 30.8499 51.5225 30.6351 51.5225 30.4072ZM55.0479 28.7324V35.0312H53.7539V27.7168H54.9502L55.0479 28.7324ZM58.4414 30.3047V30.4072C58.4414 30.7913 58.3958 31.1478 58.3047 31.4766C58.2168 31.8021 58.0866 32.0869 57.9141 32.3311C57.7415 32.5719 57.5267 32.7607 57.2695 32.8975C57.0156 33.0309 56.7227 33.0977 56.3906 33.0977C56.0651 33.0977 55.7819 33.0358 55.541 32.9121C55.3001 32.7852 55.0967 32.6061 54.9307 32.375C54.7646 32.1439 54.6312 31.8753 54.5303 31.5693C54.4326 31.2601 54.3594 30.9232 54.3105 30.5586V30.2314C54.3594 29.8441 54.4326 29.4925 54.5303 29.1768C54.6312 28.8577 54.7646 28.5827 54.9307 28.3516C55.0967 28.1172 55.2985 27.9365 55.5361 27.8096C55.777 27.6826 56.0586 27.6191 56.3809 27.6191C56.7161 27.6191 57.0107 27.6826 57.2646 27.8096C57.5218 27.9365 57.7383 28.1188 57.9141 28.3564C58.0898 28.5941 58.2217 28.8773 58.3096 29.2061C58.3975 29.5348 58.4414 29.901 58.4414 30.3047ZM57.1475 30.4072V30.3047C57.1475 30.0703 57.1263 29.8538 57.084 29.6553C57.0417 29.4535 56.9766 29.2777 56.8887 29.1279C56.8008 28.9749 56.6868 28.8561 56.5469 28.7715C56.4069 28.6868 56.2376 28.6445 56.0391 28.6445C55.8405 28.6445 55.6696 28.6771 55.5264 28.7422C55.3831 28.8073 55.266 28.9001 55.1748 29.0205C55.0837 29.141 55.012 29.2842 54.96 29.4502C54.9111 29.613 54.8786 29.7936 54.8623 29.9922V30.8027C54.8916 31.0436 54.9486 31.2601 55.0332 31.4521C55.1178 31.6442 55.2415 31.7972 55.4043 31.9111C55.5703 32.0251 55.7852 32.082 56.0488 32.082C56.2474 32.082 56.4167 32.0381 56.5566 31.9502C56.6966 31.8623 56.8105 31.7419 56.8984 31.5889C56.9863 31.4326 57.0498 31.2536 57.0889 31.0518C57.1279 30.8499 57.1475 30.6351 57.1475 30.4072ZM63.2021 31.1543C63.2021 31.0176 63.181 30.8955 63.1387 30.7881C63.0996 30.6774 63.0264 30.5781 62.9189 30.4902C62.8148 30.3991 62.6667 30.3112 62.4746 30.2266C62.2858 30.1387 62.0417 30.0475 61.7422 29.9531C61.4102 29.849 61.1009 29.7318 60.8145 29.6016C60.528 29.4714 60.2757 29.32 60.0576 29.1475C59.8428 28.9749 59.6751 28.7764 59.5547 28.5518C59.4342 28.3239 59.374 28.0602 59.374 27.7607C59.374 27.4678 59.4359 27.2008 59.5596 26.96C59.6865 26.7191 59.8656 26.5124 60.0967 26.3398C60.3278 26.1641 60.5996 26.029 60.9121 25.9346C61.2279 25.8402 61.5762 25.793 61.957 25.793C62.4844 25.793 62.9401 25.889 63.3242 26.0811C63.7116 26.2731 64.0111 26.5335 64.2227 26.8623C64.4342 27.1911 64.54 27.5605 64.54 27.9707H63.2021C63.2021 27.7493 63.1549 27.554 63.0605 27.3848C62.9694 27.2155 62.8294 27.082 62.6406 26.9844C62.4551 26.8867 62.2207 26.8379 61.9375 26.8379C61.6641 26.8379 61.4362 26.8786 61.2539 26.96C61.0749 27.0413 60.9398 27.152 60.8486 27.292C60.7607 27.432 60.7168 27.5882 60.7168 27.7607C60.7168 27.891 60.7477 28.0081 60.8096 28.1123C60.8714 28.2132 60.9642 28.3092 61.0879 28.4004C61.2116 28.4883 61.3646 28.5713 61.5469 28.6494C61.7324 28.7243 61.9473 28.7992 62.1914 28.874C62.582 28.9912 62.9238 29.1214 63.2168 29.2646C63.513 29.4079 63.7588 29.5706 63.9541 29.7529C64.1527 29.9352 64.3008 30.1403 64.3984 30.3682C64.4993 30.596 64.5498 30.8548 64.5498 31.1445C64.5498 31.4505 64.4896 31.724 64.3691 31.9648C64.2487 32.2057 64.0762 32.4108 63.8516 32.5801C63.627 32.7493 63.3568 32.8779 63.041 32.9658C62.7285 33.0537 62.3786 33.0977 61.9912 33.0977C61.6462 33.0977 61.3044 33.0521 60.9658 32.9609C60.6305 32.8665 60.3262 32.7266 60.0527 32.541C59.7793 32.3522 59.5612 32.1146 59.3984 31.8281C59.2357 31.5384 59.1543 31.1999 59.1543 30.8125H60.502C60.502 31.0371 60.5378 31.2292 60.6094 31.3887C60.6842 31.5449 60.7884 31.6735 60.9219 31.7744C61.0586 31.8721 61.2181 31.9437 61.4004 31.9893C61.5827 32.0348 61.7796 32.0576 61.9912 32.0576C62.2646 32.0576 62.4893 32.0202 62.665 31.9453C62.8441 31.8672 62.9775 31.7598 63.0654 31.623C63.1566 31.4863 63.2021 31.3301 63.2021 31.1543ZM67.9873 27.7168V28.6445H64.96V27.7168H67.9873ZM65.7705 26.418H67.0645V31.4766C67.0645 31.6328 67.0856 31.7533 67.1279 31.8379C67.1702 31.9225 67.2337 31.9795 67.3184 32.0088C67.403 32.0381 67.5039 32.0527 67.6211 32.0527C67.7057 32.0527 67.7839 32.0479 67.8555 32.0381C67.9271 32.0283 67.9873 32.0186 68.0361 32.0088L68.041 32.9756C67.9336 33.0114 67.8115 33.0407 67.6748 33.0635C67.5413 33.0863 67.39 33.0977 67.2207 33.0977C66.931 33.0977 66.6771 33.0488 66.459 32.9512C66.2409 32.8503 66.0716 32.6891 65.9512 32.4678C65.8307 32.2432 65.7705 31.9469 65.7705 31.5791V26.418ZM68.4902 30.4121V30.3096C68.4902 29.9222 68.5456 29.5658 68.6562 29.2402C68.7669 28.9115 68.9281 28.6266 69.1396 28.3857C69.3512 28.1449 69.61 27.9577 69.916 27.8242C70.222 27.6875 70.5703 27.6191 70.9609 27.6191C71.3581 27.6191 71.7096 27.6875 72.0156 27.8242C72.3249 27.9577 72.5853 28.1449 72.7969 28.3857C73.0085 28.6266 73.1696 28.9115 73.2803 29.2402C73.391 29.5658 73.4463 29.9222 73.4463 30.3096V30.4121C73.4463 30.7962 73.391 31.1527 73.2803 31.4814C73.1696 31.807 73.0085 32.0918 72.7969 32.3359C72.5853 32.5768 72.3265 32.764 72.0205 32.8975C71.7145 33.0309 71.3646 33.0977 70.9707 33.0977C70.5801 33.0977 70.2301 33.0309 69.9209 32.8975C69.6117 32.764 69.3512 32.5768 69.1396 32.3359C68.9281 32.0918 68.7669 31.807 68.6562 31.4814C68.5456 31.1527 68.4902 30.7962 68.4902 30.4121ZM69.7793 30.3096V30.4121C69.7793 30.6432 69.8021 30.8597 69.8477 31.0615C69.8932 31.2633 69.9632 31.4408 70.0576 31.5938C70.152 31.7467 70.2741 31.8672 70.4238 31.9551C70.5768 32.0397 70.7591 32.082 70.9707 32.082C71.179 32.082 71.3581 32.0397 71.5078 31.9551C71.6576 31.8672 71.7796 31.7467 71.874 31.5938C71.9717 31.4408 72.0433 31.2633 72.0889 31.0615C72.1344 30.8597 72.1572 30.6432 72.1572 30.4121V30.3096C72.1572 30.0817 72.1344 29.8685 72.0889 29.6699C72.0433 29.4681 71.9717 29.2907 71.874 29.1377C71.7796 28.9814 71.6559 28.8594 71.5029 28.7715C71.3532 28.6803 71.1725 28.6348 70.9609 28.6348C70.7526 28.6348 70.5736 28.6803 70.4238 28.7715C70.2741 28.8594 70.152 28.9814 70.0576 29.1377C69.9632 29.2907 69.8932 29.4681 69.8477 29.6699C69.8021 29.8685 69.7793 30.0817 69.7793 30.3096ZM75.6729 28.7959V33H74.3838V27.7168H75.6045L75.6729 28.7959ZM77.2793 27.6826L77.2598 28.8838C77.1882 28.8708 77.1068 28.861 77.0156 28.8545C76.9277 28.848 76.8447 28.8447 76.7666 28.8447C76.568 28.8447 76.3939 28.8724 76.2441 28.9277C76.0944 28.9798 75.9691 29.0563 75.8682 29.1572C75.7705 29.2581 75.6956 29.3818 75.6436 29.5283C75.5915 29.6715 75.5622 29.8343 75.5557 30.0166L75.2773 29.9824C75.2773 29.6471 75.3115 29.3363 75.3799 29.0498C75.4482 28.7633 75.5475 28.5127 75.6777 28.2979C75.8079 28.083 75.9707 27.917 76.166 27.7998C76.3646 27.6794 76.5924 27.6191 76.8496 27.6191C76.9212 27.6191 76.9977 27.6257 77.0791 27.6387C77.1637 27.6484 77.2305 27.6631 77.2793 27.6826ZM80.2627 33.0977C79.8623 33.0977 79.5026 33.0326 79.1836 32.9023C78.8646 32.7721 78.5928 32.5915 78.3682 32.3604C78.1468 32.126 77.9759 31.8542 77.8555 31.5449C77.7383 31.2324 77.6797 30.8971 77.6797 30.5391V30.3438C77.6797 29.9368 77.7383 29.5674 77.8555 29.2354C77.9727 28.9001 78.1387 28.612 78.3535 28.3711C78.5684 28.1302 78.8255 27.9447 79.125 27.8145C79.4245 27.6842 79.7549 27.6191 80.1162 27.6191C80.4906 27.6191 80.821 27.6826 81.1074 27.8096C81.3939 27.9333 81.6331 28.109 81.8252 28.3369C82.0173 28.5648 82.1621 28.8382 82.2598 29.1572C82.3574 29.473 82.4062 29.8229 82.4062 30.207V30.749H78.2656V29.8604H81.1367V29.7627C81.1302 29.5576 81.0911 29.3704 81.0195 29.2012C80.9479 29.0286 80.8372 28.8919 80.6875 28.791C80.5378 28.6868 80.3441 28.6348 80.1064 28.6348C79.9144 28.6348 79.7467 28.6771 79.6035 28.7617C79.4635 28.8431 79.3464 28.9603 79.252 29.1133C79.1608 29.263 79.0924 29.4421 79.0469 29.6504C79.0013 29.8587 78.9785 30.0898 78.9785 30.3438V30.5391C78.9785 30.7604 79.0078 30.9655 79.0664 31.1543C79.1283 31.3431 79.2178 31.5075 79.335 31.6475C79.4554 31.7842 79.5986 31.8916 79.7646 31.9697C79.9339 32.0446 80.126 32.082 80.3408 32.082C80.611 32.082 80.8551 32.0299 81.0732 31.9258C81.2946 31.8184 81.4867 31.6605 81.6494 31.4521L82.2988 32.126C82.1882 32.2887 82.0384 32.445 81.8496 32.5947C81.6641 32.7445 81.4395 32.8665 81.1758 32.9609C80.9121 33.0521 80.6077 33.0977 80.2627 33.0977Z" fill="black"/>
</svg>
