<svg width="131" height="49" viewBox="0 0 131 49" fill="none" xmlns="http://www.w3.org/2000/svg">
<rect width="131" height="49" rx="5" fill="#F6E0DB"/>
<path d="M43.8071 20.3633H42.2886L42.2983 19.3916H43.8071C44.2466 19.3916 44.6144 19.2956 44.9106 19.1035C45.2101 18.9115 45.4347 18.6364 45.5845 18.2783C45.7375 17.9202 45.814 17.4938 45.814 16.999V16.6133C45.814 16.2292 45.77 15.889 45.6821 15.5928C45.5975 15.2965 45.4705 15.0475 45.3013 14.8457C45.1353 14.6439 44.9302 14.4909 44.686 14.3867C44.4451 14.2826 44.1668 14.2305 43.8511 14.2305H42.2593V13.2539H43.8511C44.3231 13.2539 44.7544 13.3337 45.145 13.4932C45.5356 13.6494 45.8726 13.8757 46.1558 14.1719C46.4422 14.4681 46.6619 14.8229 46.8149 15.2363C46.9679 15.6497 47.0444 16.112 47.0444 16.623V16.999C47.0444 17.5101 46.9679 17.9723 46.8149 18.3857C46.6619 18.7992 46.4422 19.154 46.1558 19.4502C45.8693 19.7432 45.5275 19.9694 45.1304 20.1289C44.7365 20.2852 44.2954 20.3633 43.8071 20.3633ZM42.9673 13.2539V20.3633H41.7417V13.2539H42.9673ZM47.9331 17.7803V17.668C47.9331 17.2871 47.9884 16.9339 48.0991 16.6084C48.2098 16.2796 48.3693 15.9948 48.5776 15.7539C48.7892 15.5098 49.0464 15.321 49.3491 15.1875C49.6551 15.0508 50.0002 14.9824 50.3843 14.9824C50.7716 14.9824 51.1167 15.0508 51.4194 15.1875C51.7254 15.321 51.9842 15.5098 52.1958 15.7539C52.4074 15.9948 52.5685 16.2796 52.6792 16.6084C52.7899 16.9339 52.8452 17.2871 52.8452 17.668V17.7803C52.8452 18.1611 52.7899 18.5143 52.6792 18.8398C52.5685 19.1654 52.4074 19.4502 52.1958 19.6943C51.9842 19.9352 51.7271 20.124 51.4243 20.2607C51.1216 20.3942 50.7782 20.4609 50.394 20.4609C50.0067 20.4609 49.66 20.3942 49.354 20.2607C49.0513 20.124 48.7941 19.9352 48.5825 19.6943C48.3709 19.4502 48.2098 19.1654 48.0991 18.8398C47.9884 18.5143 47.9331 18.1611 47.9331 17.7803ZM49.1099 17.668V17.7803C49.1099 18.0179 49.1343 18.2425 49.1831 18.4541C49.2319 18.6657 49.3084 18.8512 49.4126 19.0107C49.5168 19.1702 49.6502 19.2956 49.813 19.3867C49.9757 19.4779 50.1694 19.5234 50.394 19.5234C50.6121 19.5234 50.8009 19.4779 50.9604 19.3867C51.1232 19.2956 51.2567 19.1702 51.3608 19.0107C51.465 18.8512 51.5415 18.6657 51.5903 18.4541C51.6424 18.2425 51.6685 18.0179 51.6685 17.7803V17.668C51.6685 17.4336 51.6424 17.2122 51.5903 17.0039C51.5415 16.7923 51.4634 16.6051 51.356 16.4424C51.2518 16.2796 51.1183 16.1527 50.9556 16.0615C50.7961 15.9671 50.6056 15.9199 50.3843 15.9199C50.1629 15.9199 49.9709 15.9671 49.8081 16.0615C49.6486 16.1527 49.5168 16.2796 49.4126 16.4424C49.3084 16.6051 49.2319 16.7923 49.1831 17.0039C49.1343 17.2122 49.1099 17.4336 49.1099 17.668ZM55.2671 19.1914L56.4878 15.0801H57.2397L57.0347 16.3105L55.8042 20.3633H55.1304L55.2671 19.1914ZM54.5493 15.0801L55.5015 19.2109L55.5796 20.3633H54.8276L53.397 15.0801H54.5493ZM58.3823 19.1621L59.3052 15.0801H60.4526L59.0269 20.3633H58.2749L58.3823 19.1621ZM57.3667 15.0801L58.5728 19.1426L58.7241 20.3633H58.0503L56.8052 16.3057L56.6001 15.0801H57.3667ZM62.4204 16.208V20.3633H61.2437V15.0801H62.3521L62.4204 16.208ZM62.2104 17.5264L61.8296 17.5215C61.8328 17.1471 61.8849 16.8037 61.9858 16.4912C62.09 16.1787 62.2332 15.9102 62.4155 15.6855C62.6011 15.4609 62.8224 15.2884 63.0796 15.168C63.3368 15.0443 63.6232 14.9824 63.939 14.9824C64.1929 14.9824 64.4224 15.0182 64.6274 15.0898C64.8358 15.1582 65.0132 15.2705 65.1597 15.4268C65.3094 15.583 65.4233 15.7865 65.5015 16.0371C65.5796 16.2845 65.6187 16.5889 65.6187 16.9502V20.3633H64.437V16.9453C64.437 16.6914 64.3996 16.4912 64.3247 16.3447C64.2531 16.195 64.1473 16.0892 64.0073 16.0273C63.8706 15.9622 63.6997 15.9297 63.4946 15.9297C63.2928 15.9297 63.1121 15.972 62.9526 16.0566C62.7931 16.1413 62.658 16.2568 62.5474 16.4033C62.4399 16.5498 62.3569 16.7191 62.2983 16.9111C62.2397 17.1032 62.2104 17.3083 62.2104 17.5264ZM68.0796 12.8633V20.3633H66.8979V12.8633H68.0796ZM69.144 17.7803V17.668C69.144 17.2871 69.1994 16.9339 69.3101 16.6084C69.4207 16.2796 69.5802 15.9948 69.7886 15.7539C70.0002 15.5098 70.2573 15.321 70.5601 15.1875C70.866 15.0508 71.2111 14.9824 71.5952 14.9824C71.9826 14.9824 72.3276 15.0508 72.6304 15.1875C72.9364 15.321 73.1951 15.5098 73.4067 15.7539C73.6183 15.9948 73.7795 16.2796 73.8901 16.6084C74.0008 16.9339 74.0562 17.2871 74.0562 17.668V17.7803C74.0562 18.1611 74.0008 18.5143 73.8901 18.8398C73.7795 19.1654 73.6183 19.4502 73.4067 19.6943C73.1951 19.9352 72.938 20.124 72.6353 20.2607C72.3325 20.3942 71.9891 20.4609 71.605 20.4609C71.2176 20.4609 70.8709 20.3942 70.5649 20.2607C70.2622 20.124 70.005 19.9352 69.7935 19.6943C69.5819 19.4502 69.4207 19.1654 69.3101 18.8398C69.1994 18.5143 69.144 18.1611 69.144 17.7803ZM70.3208 17.668V17.7803C70.3208 18.0179 70.3452 18.2425 70.394 18.4541C70.4429 18.6657 70.5194 18.8512 70.6235 19.0107C70.7277 19.1702 70.8612 19.2956 71.0239 19.3867C71.1867 19.4779 71.3804 19.5234 71.605 19.5234C71.8231 19.5234 72.0119 19.4779 72.1714 19.3867C72.3341 19.2956 72.4676 19.1702 72.5718 19.0107C72.6759 18.8512 72.7524 18.6657 72.8013 18.4541C72.8534 18.2425 72.8794 18.0179 72.8794 17.7803V17.668C72.8794 17.4336 72.8534 17.2122 72.8013 17.0039C72.7524 16.7923 72.6743 16.6051 72.5669 16.4424C72.4627 16.2796 72.3293 16.1527 72.1665 16.0615C72.007 15.9671 71.8166 15.9199 71.5952 15.9199C71.3739 15.9199 71.1818 15.9671 71.019 16.0615C70.8595 16.1527 70.7277 16.2796 70.6235 16.4424C70.5194 16.6051 70.4429 16.7923 70.394 17.0039C70.3452 17.2122 70.3208 17.4336 70.3208 17.668ZM78.021 19.3037V16.7842C78.021 16.5954 77.9868 16.4326 77.9185 16.2959C77.8501 16.1592 77.7459 16.0534 77.606 15.9785C77.4692 15.9036 77.2967 15.8662 77.0884 15.8662C76.8963 15.8662 76.7303 15.8988 76.5903 15.9639C76.4504 16.029 76.3413 16.1169 76.2632 16.2275C76.1851 16.3382 76.146 16.4635 76.146 16.6035H74.9741C74.9741 16.3952 75.0246 16.1934 75.1255 15.998C75.2264 15.8027 75.3729 15.6286 75.5649 15.4756C75.757 15.3226 75.9865 15.2021 76.2534 15.1143C76.5203 15.0264 76.8198 14.9824 77.1519 14.9824C77.549 14.9824 77.9006 15.0492 78.2065 15.1826C78.5158 15.3161 78.7583 15.5179 78.9341 15.7881C79.1131 16.055 79.2026 16.3903 79.2026 16.7939V19.1426C79.2026 19.3835 79.2189 19.5999 79.2515 19.792C79.2873 19.9808 79.3377 20.1452 79.4028 20.2852V20.3633H78.1968C78.1414 20.2363 78.0975 20.0752 78.0649 19.8799C78.0356 19.6813 78.021 19.4893 78.021 19.3037ZM78.1919 17.1504L78.2017 17.8779H77.3569C77.1388 17.8779 76.9468 17.8991 76.7808 17.9414C76.6147 17.9805 76.4764 18.0391 76.3657 18.1172C76.255 18.1953 76.172 18.2897 76.1167 18.4004C76.0614 18.5111 76.0337 18.6364 76.0337 18.7764C76.0337 18.9163 76.0662 19.0449 76.1313 19.1621C76.1965 19.276 76.2909 19.3656 76.4146 19.4307C76.5415 19.4958 76.6945 19.5283 76.8735 19.5283C77.1144 19.5283 77.3244 19.4795 77.5034 19.3818C77.6857 19.2809 77.8289 19.1589 77.9331 19.0156C78.0373 18.8691 78.0926 18.7308 78.0991 18.6006L78.48 19.123C78.4409 19.2565 78.3742 19.3997 78.2798 19.5527C78.1854 19.7057 78.0617 19.8522 77.9087 19.9922C77.759 20.1289 77.5783 20.2412 77.3667 20.3291C77.1584 20.417 76.9175 20.4609 76.644 20.4609C76.299 20.4609 75.9914 20.3926 75.7212 20.2559C75.451 20.1159 75.2394 19.9287 75.0864 19.6943C74.9334 19.4567 74.8569 19.1882 74.8569 18.8887C74.8569 18.6087 74.909 18.3613 75.0132 18.1465C75.1206 17.9284 75.2769 17.7461 75.4819 17.5996C75.6903 17.4531 75.9442 17.3424 76.2437 17.2676C76.5431 17.1895 76.8849 17.1504 77.269 17.1504H78.1919ZM83.6558 19.2695V12.8633H84.8374V20.3633H83.7681L83.6558 19.2695ZM80.2183 17.7803V17.6777C80.2183 17.2773 80.2655 16.9128 80.3599 16.584C80.4543 16.252 80.591 15.9671 80.77 15.7295C80.9491 15.4886 81.1672 15.3047 81.4243 15.1777C81.6815 15.0475 81.9712 14.9824 82.2935 14.9824C82.6125 14.9824 82.8924 15.0443 83.1333 15.168C83.3742 15.2917 83.5793 15.4691 83.7485 15.7002C83.9178 15.9281 84.0529 16.2015 84.1538 16.5205C84.2547 16.8363 84.3263 17.1878 84.3687 17.5752V17.9023C84.3263 18.2799 84.2547 18.625 84.1538 18.9375C84.0529 19.25 83.9178 19.5202 83.7485 19.748C83.5793 19.9759 83.3726 20.1517 83.1284 20.2754C82.8875 20.3991 82.606 20.4609 82.2837 20.4609C81.9647 20.4609 81.6766 20.3942 81.4194 20.2607C81.1655 20.1273 80.9491 19.9401 80.77 19.6992C80.591 19.4583 80.4543 19.1751 80.3599 18.8496C80.2655 18.5208 80.2183 18.1644 80.2183 17.7803ZM81.395 17.6777V17.7803C81.395 18.0212 81.4162 18.2458 81.4585 18.4541C81.5041 18.6624 81.5741 18.8464 81.6685 19.0059C81.7629 19.1621 81.8849 19.2858 82.0347 19.377C82.1877 19.4648 82.37 19.5088 82.5815 19.5088C82.8485 19.5088 83.0682 19.4502 83.2407 19.333C83.4132 19.2158 83.5483 19.0579 83.646 18.8594C83.7469 18.6576 83.8153 18.4329 83.8511 18.1855V17.3018C83.8315 17.1097 83.7909 16.9307 83.729 16.7646C83.6704 16.5986 83.5907 16.4538 83.4897 16.3301C83.3888 16.2031 83.2635 16.1055 83.1138 16.0371C82.9673 15.9655 82.7931 15.9297 82.5913 15.9297C82.3765 15.9297 82.1942 15.9753 82.0444 16.0664C81.8947 16.1576 81.771 16.2829 81.6733 16.4424C81.5789 16.6019 81.509 16.7874 81.4634 16.999C81.4178 17.2106 81.395 17.4368 81.395 17.6777ZM88.3335 17.7803V17.668C88.3335 17.2871 88.3888 16.9339 88.4995 16.6084C88.6102 16.2796 88.7697 15.9948 88.978 15.7539C89.1896 15.5098 89.4468 15.321 89.7495 15.1875C90.0555 15.0508 90.4006 14.9824 90.7847 14.9824C91.172 14.9824 91.5171 15.0508 91.8198 15.1875C92.1258 15.321 92.3846 15.5098 92.5962 15.7539C92.8078 15.9948 92.9689 16.2796 93.0796 16.6084C93.1903 16.9339 93.2456 17.2871 93.2456 17.668V17.7803C93.2456 18.1611 93.1903 18.5143 93.0796 18.8398C92.9689 19.1654 92.8078 19.4502 92.5962 19.6943C92.3846 19.9352 92.1274 20.124 91.8247 20.2607C91.522 20.3942 91.1785 20.4609 90.7944 20.4609C90.4071 20.4609 90.0604 20.3942 89.7544 20.2607C89.4517 20.124 89.1945 19.9352 88.9829 19.6943C88.7713 19.4502 88.6102 19.1654 88.4995 18.8398C88.3888 18.5143 88.3335 18.1611 88.3335 17.7803ZM89.5103 17.668V17.7803C89.5103 18.0179 89.5347 18.2425 89.5835 18.4541C89.6323 18.6657 89.7088 18.8512 89.813 19.0107C89.9172 19.1702 90.0506 19.2956 90.2134 19.3867C90.3761 19.4779 90.5698 19.5234 90.7944 19.5234C91.0125 19.5234 91.2013 19.4779 91.3608 19.3867C91.5236 19.2956 91.6571 19.1702 91.7612 19.0107C91.8654 18.8512 91.9419 18.6657 91.9907 18.4541C92.0428 18.2425 92.0688 18.0179 92.0688 17.7803V17.668C92.0688 17.4336 92.0428 17.2122 91.9907 17.0039C91.9419 16.7923 91.8638 16.6051 91.7563 16.4424C91.6522 16.2796 91.5187 16.1527 91.356 16.0615C91.1965 15.9671 91.006 15.9199 90.7847 15.9199C90.5633 15.9199 90.3713 15.9671 90.2085 16.0615C90.049 16.1527 89.9172 16.2796 89.813 16.4424C89.7088 16.6051 89.6323 16.7923 89.5835 17.0039C89.5347 17.2122 89.5103 17.4336 89.5103 17.668ZM95.3989 16.208V20.3633H94.2222V15.0801H95.3306L95.3989 16.208ZM95.189 17.5264L94.8081 17.5215C94.8114 17.1471 94.8634 16.8037 94.9644 16.4912C95.0685 16.1787 95.2118 15.9102 95.394 15.6855C95.5796 15.4609 95.8009 15.2884 96.0581 15.168C96.3153 15.0443 96.6017 14.9824 96.9175 14.9824C97.1714 14.9824 97.4009 15.0182 97.606 15.0898C97.8143 15.1582 97.9917 15.2705 98.1382 15.4268C98.2879 15.583 98.4019 15.7865 98.48 16.0371C98.5581 16.2845 98.5972 16.5889 98.5972 16.9502V20.3633H97.4155V16.9453C97.4155 16.6914 97.3781 16.4912 97.3032 16.3447C97.2316 16.195 97.1258 16.0892 96.9858 16.0273C96.8491 15.9622 96.6782 15.9297 96.4731 15.9297C96.2713 15.9297 96.0907 15.972 95.9312 16.0566C95.7716 16.1413 95.6366 16.2568 95.5259 16.4033C95.4185 16.5498 95.3354 16.7191 95.2769 16.9111C95.2183 17.1032 95.189 17.3083 95.189 17.5264ZM104.71 15.0801V15.9395H101.732V15.0801H104.71ZM102.591 13.7861H103.768V18.9033C103.768 19.0661 103.791 19.1914 103.836 19.2793C103.885 19.3639 103.952 19.4209 104.037 19.4502C104.121 19.4795 104.221 19.4941 104.334 19.4941C104.416 19.4941 104.494 19.4893 104.569 19.4795C104.644 19.4697 104.704 19.46 104.75 19.4502L104.754 20.3486C104.657 20.3779 104.543 20.404 104.413 20.4268C104.286 20.4495 104.139 20.4609 103.973 20.4609C103.703 20.4609 103.464 20.4137 103.255 20.3193C103.047 20.2217 102.884 20.0638 102.767 19.8457C102.65 19.6276 102.591 19.3379 102.591 18.9766V13.7861ZM106.781 12.8633V20.3633H105.609V12.8633H106.781ZM106.576 17.5264L106.195 17.5215C106.198 17.1569 106.249 16.82 106.346 16.5107C106.447 16.2015 106.587 15.9329 106.766 15.7051C106.948 15.474 107.167 15.2965 107.42 15.1729C107.674 15.0459 107.956 14.9824 108.265 14.9824C108.526 14.9824 108.76 15.0182 108.968 15.0898C109.18 15.1615 109.362 15.277 109.515 15.4365C109.668 15.5928 109.784 15.7979 109.862 16.0518C109.943 16.3024 109.984 16.6084 109.984 16.9697V20.3633H108.802V16.96C108.802 16.7061 108.765 16.5042 108.69 16.3545C108.618 16.2048 108.513 16.0973 108.373 16.0322C108.233 15.9639 108.062 15.9297 107.86 15.9297C107.648 15.9297 107.461 15.972 107.298 16.0566C107.139 16.1413 107.005 16.2568 106.898 16.4033C106.791 16.5498 106.709 16.7191 106.654 16.9111C106.602 17.1032 106.576 17.3083 106.576 17.5264ZM113.504 20.4609C113.114 20.4609 112.761 20.3975 112.445 20.2705C112.132 20.1403 111.865 19.9596 111.644 19.7285C111.426 19.4974 111.258 19.2256 111.141 18.9131C111.024 18.6006 110.965 18.2637 110.965 17.9023V17.707C110.965 17.2936 111.026 16.9193 111.146 16.584C111.266 16.2487 111.434 15.9622 111.649 15.7246C111.864 15.4837 112.118 15.2998 112.411 15.1729C112.704 15.0459 113.021 14.9824 113.363 14.9824C113.74 14.9824 114.071 15.0459 114.354 15.1729C114.637 15.2998 114.872 15.4788 115.057 15.71C115.246 15.9378 115.386 16.2096 115.477 16.5254C115.571 16.8411 115.619 17.1895 115.619 17.5703V18.0732H111.537V17.2285H114.457V17.1357C114.45 16.9242 114.408 16.7256 114.33 16.54C114.255 16.3545 114.139 16.2048 113.983 16.0908C113.827 15.9769 113.618 15.9199 113.358 15.9199C113.163 15.9199 112.988 15.9622 112.835 16.0469C112.686 16.1283 112.56 16.2471 112.459 16.4033C112.359 16.5596 112.28 16.7484 112.225 16.9697C112.173 17.1878 112.147 17.4336 112.147 17.707V17.9023C112.147 18.1335 112.178 18.3483 112.24 18.5469C112.305 18.7422 112.399 18.9131 112.523 19.0596C112.647 19.2061 112.796 19.3216 112.972 19.4062C113.148 19.4876 113.348 19.5283 113.573 19.5283C113.856 19.5283 114.108 19.4714 114.33 19.3574C114.551 19.2435 114.743 19.0824 114.906 18.874L115.526 19.4746C115.412 19.6406 115.264 19.8001 115.082 19.9531C114.899 20.1029 114.676 20.2249 114.413 20.3193C114.152 20.4137 113.849 20.4609 113.504 20.4609ZM47.2007 28.7305V31.4453C47.0998 31.5788 46.9419 31.7253 46.7271 31.8848C46.5155 32.041 46.2339 32.1761 45.8823 32.29C45.5308 32.404 45.0929 32.4609 44.5688 32.4609C44.1229 32.4609 43.7144 32.3861 43.3433 32.2363C42.9722 32.0833 42.6515 31.8604 42.3813 31.5674C42.1144 31.2744 41.9077 30.918 41.7612 30.498C41.6147 30.0749 41.5415 29.5931 41.5415 29.0527V28.5596C41.5415 28.0225 41.6082 27.5439 41.7417 27.124C41.8784 26.7008 42.0737 26.3428 42.3276 26.0498C42.5815 25.7568 42.8875 25.5355 43.2456 25.3857C43.6069 25.2327 44.0155 25.1562 44.4712 25.1562C45.0539 25.1562 45.5356 25.2539 45.9165 25.4492C46.3006 25.6413 46.5968 25.9082 46.8052 26.25C47.0135 26.5918 47.1453 26.9824 47.2007 27.4219H45.9995C45.9604 27.1745 45.884 26.9531 45.77 26.7578C45.6593 26.5625 45.4998 26.4095 45.2915 26.2988C45.0864 26.1849 44.8195 26.1279 44.4907 26.1279C44.2075 26.1279 43.9585 26.1816 43.7437 26.2891C43.5288 26.3965 43.3498 26.5544 43.2065 26.7627C43.0666 26.971 42.9608 27.2249 42.8892 27.5244C42.8175 27.8239 42.7817 28.1657 42.7817 28.5498V29.0527C42.7817 29.4434 42.8224 29.79 42.9038 30.0928C42.9884 30.3955 43.1089 30.651 43.2651 30.8594C43.4246 31.0677 43.6183 31.2256 43.8462 31.333C44.0741 31.4372 44.3312 31.4893 44.6177 31.4893C44.8976 31.4893 45.1271 31.4665 45.3062 31.4209C45.4852 31.3721 45.6268 31.3151 45.731 31.25C45.8384 31.1816 45.9214 31.1165 45.98 31.0547V29.6436H44.5005V28.7305H47.2007ZM48.2163 29.7803V29.668C48.2163 29.2871 48.2716 28.9339 48.3823 28.6084C48.493 28.2796 48.6525 27.9948 48.8608 27.7539C49.0724 27.5098 49.3296 27.321 49.6323 27.1875C49.9383 27.0508 50.2834 26.9824 50.6675 26.9824C51.0549 26.9824 51.3999 27.0508 51.7026 27.1875C52.0086 27.321 52.2674 27.5098 52.479 27.7539C52.6906 27.9948 52.8517 28.2796 52.9624 28.6084C53.0731 28.9339 53.1284 29.2871 53.1284 29.668V29.7803C53.1284 30.1611 53.0731 30.5143 52.9624 30.8398C52.8517 31.1654 52.6906 31.4502 52.479 31.6943C52.2674 31.9352 52.0103 32.124 51.7075 32.2607C51.4048 32.3942 51.0614 32.4609 50.6772 32.4609C50.2899 32.4609 49.9432 32.3942 49.6372 32.2607C49.3345 32.124 49.0773 31.9352 48.8657 31.6943C48.6541 31.4502 48.493 31.1654 48.3823 30.8398C48.2716 30.5143 48.2163 30.1611 48.2163 29.7803ZM49.3931 29.668V29.7803C49.3931 30.0179 49.4175 30.2425 49.4663 30.4541C49.5151 30.6657 49.5916 30.8512 49.6958 31.0107C49.8 31.1702 49.9334 31.2956 50.0962 31.3867C50.259 31.4779 50.4526 31.5234 50.6772 31.5234C50.8953 31.5234 51.0841 31.4779 51.2437 31.3867C51.4064 31.2956 51.5399 31.1702 51.644 31.0107C51.7482 30.8512 51.8247 30.6657 51.8735 30.4541C51.9256 30.2425 51.9517 30.0179 51.9517 29.7803V29.668C51.9517 29.4336 51.9256 29.2122 51.8735 29.0039C51.8247 28.7923 51.7466 28.6051 51.6392 28.4424C51.535 28.2796 51.4015 28.1527 51.2388 28.0615C51.0793 27.9671 50.8888 27.9199 50.6675 27.9199C50.4461 27.9199 50.2541 27.9671 50.0913 28.0615C49.9318 28.1527 49.8 28.2796 49.6958 28.4424C49.5916 28.6051 49.5151 28.7923 49.4663 29.0039C49.4175 29.2122 49.3931 29.4336 49.3931 29.668ZM53.8901 29.7803V29.668C53.8901 29.2871 53.9455 28.9339 54.0562 28.6084C54.1668 28.2796 54.3263 27.9948 54.5347 27.7539C54.7463 27.5098 55.0034 27.321 55.3062 27.1875C55.6121 27.0508 55.9572 26.9824 56.3413 26.9824C56.7287 26.9824 57.0737 27.0508 57.3765 27.1875C57.6825 27.321 57.9412 27.5098 58.1528 27.7539C58.3644 27.9948 58.5256 28.2796 58.6362 28.6084C58.7469 28.9339 58.8022 29.2871 58.8022 29.668V29.7803C58.8022 30.1611 58.7469 30.5143 58.6362 30.8398C58.5256 31.1654 58.3644 31.4502 58.1528 31.6943C57.9412 31.9352 57.6841 32.124 57.3813 32.2607C57.0786 32.3942 56.7352 32.4609 56.3511 32.4609C55.9637 32.4609 55.617 32.3942 55.311 32.2607C55.0083 32.124 54.7511 31.9352 54.5396 31.6943C54.328 31.4502 54.1668 31.1654 54.0562 30.8398C53.9455 30.5143 53.8901 30.1611 53.8901 29.7803ZM55.0669 29.668V29.7803C55.0669 30.0179 55.0913 30.2425 55.1401 30.4541C55.189 30.6657 55.2655 30.8512 55.3696 31.0107C55.4738 31.1702 55.6073 31.2956 55.77 31.3867C55.9328 31.4779 56.1265 31.5234 56.3511 31.5234C56.5692 31.5234 56.758 31.4779 56.9175 31.3867C57.0802 31.2956 57.2137 31.1702 57.3179 31.0107C57.422 30.8512 57.4985 30.6657 57.5474 30.4541C57.5994 30.2425 57.6255 30.0179 57.6255 29.7803V29.668C57.6255 29.4336 57.5994 29.2122 57.5474 29.0039C57.4985 28.7923 57.4204 28.6051 57.313 28.4424C57.2088 28.2796 57.0754 28.1527 56.9126 28.0615C56.7531 27.9671 56.5627 27.9199 56.3413 27.9199C56.12 27.9199 55.9279 27.9671 55.7651 28.0615C55.6056 28.1527 55.4738 28.2796 55.3696 28.4424C55.2655 28.6051 55.189 28.7923 55.1401 29.0039C55.0913 29.2122 55.0669 29.4336 55.0669 29.668ZM63.1724 27.0801H64.2417V32.2168C64.2417 32.6921 64.1408 33.0957 63.939 33.4277C63.7371 33.7598 63.4556 34.012 63.0942 34.1846C62.7329 34.3604 62.3146 34.4482 61.8394 34.4482C61.6375 34.4482 61.4129 34.4189 61.1655 34.3604C60.9214 34.3018 60.6838 34.2074 60.4526 34.0771C60.2248 33.9502 60.0343 33.7826 59.8813 33.5742L60.4331 32.8809C60.6219 33.1055 60.8302 33.2699 61.0581 33.374C61.286 33.4782 61.5252 33.5303 61.7759 33.5303C62.0461 33.5303 62.2756 33.4798 62.4644 33.3789C62.6564 33.2812 62.8045 33.1364 62.9087 32.9443C63.0129 32.7523 63.0649 32.5179 63.0649 32.2412V28.2764L63.1724 27.0801ZM59.5835 29.7803V29.6777C59.5835 29.2773 59.6323 28.9128 59.73 28.584C59.8276 28.252 59.9676 27.9671 60.1499 27.7295C60.3322 27.4886 60.5535 27.3047 60.814 27.1777C61.0744 27.0475 61.369 26.9824 61.6978 26.9824C62.0396 26.9824 62.3309 27.0443 62.5718 27.168C62.8159 27.2917 63.0194 27.4691 63.1821 27.7002C63.3449 27.9281 63.4718 28.2015 63.563 28.5205C63.6574 28.8363 63.7274 29.1878 63.7729 29.5752V29.9023C63.7306 30.2799 63.659 30.625 63.5581 30.9375C63.4572 31.25 63.3237 31.5202 63.1577 31.748C62.9917 31.9759 62.7866 32.1517 62.5425 32.2754C62.3016 32.3991 62.0168 32.4609 61.688 32.4609C61.3657 32.4609 61.0744 32.3942 60.814 32.2607C60.5568 32.1273 60.3354 31.9401 60.1499 31.6992C59.9676 31.4583 59.8276 31.1751 59.73 30.8496C59.6323 30.5208 59.5835 30.1644 59.5835 29.7803ZM60.7603 29.6777V29.7803C60.7603 30.0212 60.783 30.2458 60.8286 30.4541C60.8774 30.6624 60.9507 30.8464 61.0483 31.0059C61.1493 31.1621 61.2762 31.2858 61.4292 31.377C61.5854 31.4648 61.7694 31.5088 61.981 31.5088C62.2576 31.5088 62.4839 31.4502 62.6597 31.333C62.8387 31.2158 62.9754 31.0579 63.0698 30.8594C63.1675 30.6576 63.2358 30.4329 63.2749 30.1855V29.3018C63.2554 29.1097 63.2147 28.9307 63.1528 28.7646C63.0942 28.5986 63.0145 28.4538 62.9136 28.3301C62.8127 28.2031 62.6857 28.1055 62.5327 28.0371C62.3797 27.9655 62.1991 27.9297 61.9907 27.9297C61.7791 27.9297 61.5952 27.9753 61.439 28.0664C61.2827 28.1576 61.1541 28.2829 61.0532 28.4424C60.9556 28.6019 60.8823 28.7874 60.8335 28.999C60.7847 29.2106 60.7603 29.4368 60.7603 29.6777ZM66.7222 24.8633V32.3633H65.5405V24.8633H66.7222ZM70.3403 32.4609C69.9497 32.4609 69.5965 32.3975 69.2808 32.2705C68.9683 32.1403 68.7013 31.9596 68.48 31.7285C68.2619 31.4974 68.0942 31.2256 67.9771 30.9131C67.8599 30.6006 67.8013 30.2637 67.8013 29.9023V29.707C67.8013 29.2936 67.8615 28.9193 67.9819 28.584C68.1024 28.2487 68.27 27.9622 68.4849 27.7246C68.6997 27.4837 68.9536 27.2998 69.2466 27.1729C69.5396 27.0459 69.8569 26.9824 70.1987 26.9824C70.5763 26.9824 70.9067 27.0459 71.1899 27.1729C71.4731 27.2998 71.7075 27.4788 71.8931 27.71C72.0819 27.9378 72.2218 28.2096 72.313 28.5254C72.4074 28.8411 72.4546 29.1895 72.4546 29.5703V30.0732H68.3726V29.2285H71.2925V29.1357C71.286 28.9242 71.2437 28.7256 71.1655 28.54C71.0907 28.3545 70.9751 28.2048 70.8188 28.0908C70.6626 27.9769 70.4543 27.9199 70.1938 27.9199C69.9985 27.9199 69.8244 27.9622 69.6714 28.0469C69.5216 28.1283 69.3963 28.2471 69.2954 28.4033C69.1945 28.5596 69.1164 28.7484 69.061 28.9697C69.009 29.1878 68.9829 29.4336 68.9829 29.707V29.9023C68.9829 30.1335 69.0138 30.3483 69.0757 30.5469C69.1408 30.7422 69.2352 30.9131 69.3589 31.0596C69.4826 31.2061 69.6323 31.3216 69.8081 31.4062C69.9839 31.4876 70.1841 31.5283 70.4087 31.5283C70.6919 31.5283 70.9442 31.4714 71.1655 31.3574C71.3869 31.2435 71.5789 31.0824 71.7417 30.874L72.3618 31.4746C72.2479 31.6406 72.0998 31.8001 71.9175 31.9531C71.7352 32.1029 71.5122 32.2249 71.2485 32.3193C70.9881 32.4137 70.6854 32.4609 70.3403 32.4609ZM77.0444 28.0957V34.3945H75.8677V27.0801H76.9517L77.0444 28.0957ZM80.4868 29.6729V29.7754C80.4868 30.1595 80.4412 30.516 80.3501 30.8447C80.2622 31.1702 80.1304 31.4551 79.9546 31.6992C79.7821 31.9401 79.5688 32.1273 79.3149 32.2607C79.061 32.3942 78.7681 32.4609 78.436 32.4609C78.1073 32.4609 77.8192 32.4007 77.5718 32.2803C77.3276 32.1566 77.1209 31.9824 76.9517 31.7578C76.7824 31.5332 76.6457 31.2695 76.5415 30.9668C76.4406 30.6608 76.369 30.3255 76.3267 29.9609V29.5654C76.369 29.1781 76.4406 28.8265 76.5415 28.5107C76.6457 28.195 76.7824 27.9232 76.9517 27.6953C77.1209 27.4674 77.3276 27.2917 77.5718 27.168C77.8159 27.0443 78.1007 26.9824 78.4263 26.9824C78.7583 26.9824 79.0529 27.0475 79.3101 27.1777C79.5672 27.3047 79.7837 27.487 79.9595 27.7246C80.1353 27.959 80.2671 28.2422 80.355 28.5742C80.4429 28.903 80.4868 29.2692 80.4868 29.6729ZM79.3101 29.7754V29.6729C79.3101 29.4287 79.2873 29.2025 79.2417 28.9941C79.1961 28.7826 79.1245 28.597 79.0269 28.4375C78.9292 28.278 78.8039 28.1543 78.6509 28.0664C78.5011 27.9753 78.3205 27.9297 78.1089 27.9297C77.9006 27.9297 77.7215 27.9655 77.5718 28.0371C77.422 28.1055 77.2967 28.2015 77.1958 28.3252C77.0949 28.4489 77.0168 28.5938 76.9614 28.7598C76.9061 28.9225 76.867 29.0999 76.8442 29.292V30.2393C76.8833 30.4736 76.95 30.6885 77.0444 30.8838C77.1388 31.0791 77.2723 31.2354 77.4448 31.3525C77.6206 31.4665 77.8452 31.5234 78.1187 31.5234C78.3302 31.5234 78.5109 31.4779 78.6606 31.3867C78.8104 31.2956 78.9325 31.1702 79.0269 31.0107C79.1245 30.848 79.1961 30.6608 79.2417 30.4492C79.2873 30.2376 79.3101 30.013 79.3101 29.7754ZM82.7476 24.8633V32.3633H81.5659V24.8633H82.7476ZM87.0151 31.3037V28.7842C87.0151 28.5954 86.981 28.4326 86.9126 28.2959C86.8442 28.1592 86.7401 28.0534 86.6001 27.9785C86.4634 27.9036 86.2909 27.8662 86.0825 27.8662C85.8905 27.8662 85.7244 27.8988 85.5845 27.9639C85.4445 28.029 85.3354 28.1169 85.2573 28.2275C85.1792 28.3382 85.1401 28.4635 85.1401 28.6035H83.9683C83.9683 28.3952 84.0187 28.1934 84.1196 27.998C84.2205 27.8027 84.367 27.6286 84.5591 27.4756C84.7511 27.3226 84.9806 27.2021 85.2476 27.1143C85.5145 27.0264 85.814 26.9824 86.146 26.9824C86.5431 26.9824 86.8947 27.0492 87.2007 27.1826C87.5099 27.3161 87.7524 27.5179 87.9282 27.7881C88.1073 28.055 88.1968 28.3903 88.1968 28.7939V31.1426C88.1968 31.3835 88.2131 31.5999 88.2456 31.792C88.2814 31.9808 88.3319 32.1452 88.397 32.2852V32.3633H87.1909C87.1356 32.2363 87.0916 32.0752 87.0591 31.8799C87.0298 31.6813 87.0151 31.4893 87.0151 31.3037ZM87.186 29.1504L87.1958 29.8779H86.3511C86.133 29.8779 85.9409 29.8991 85.7749 29.9414C85.6089 29.9805 85.4705 30.0391 85.3599 30.1172C85.2492 30.1953 85.1662 30.2897 85.1108 30.4004C85.0555 30.5111 85.0278 30.6364 85.0278 30.7764C85.0278 30.9163 85.0604 31.0449 85.1255 31.1621C85.1906 31.276 85.285 31.3656 85.4087 31.4307C85.5356 31.4958 85.6886 31.5283 85.8677 31.5283C86.1086 31.5283 86.3185 31.4795 86.4976 31.3818C86.6799 31.2809 86.8231 31.1589 86.9272 31.0156C87.0314 30.8691 87.0868 30.7308 87.0933 30.6006L87.4741 31.123C87.4351 31.2565 87.3683 31.3997 87.2739 31.5527C87.1795 31.7057 87.0558 31.8522 86.9028 31.9922C86.7531 32.1289 86.5724 32.2412 86.3608 32.3291C86.1525 32.417 85.9116 32.4609 85.6382 32.4609C85.2931 32.4609 84.9855 32.3926 84.7153 32.2559C84.4451 32.1159 84.2336 31.9287 84.0806 31.6943C83.9276 31.4567 83.8511 31.1882 83.8511 30.8887C83.8511 30.6087 83.9032 30.3613 84.0073 30.1465C84.1147 29.9284 84.271 29.7461 84.4761 29.5996C84.6844 29.4531 84.9383 29.3424 85.2378 29.2676C85.5373 29.1895 85.8791 29.1504 86.2632 29.1504H87.186ZM90.8823 31.7871L92.3179 27.0801H93.5776L91.4585 33.1689C91.4097 33.2992 91.3462 33.4408 91.2681 33.5938C91.1899 33.7467 91.0874 33.8916 90.9604 34.0283C90.8368 34.1683 90.6821 34.2806 90.4966 34.3652C90.311 34.4531 90.0864 34.4971 89.8228 34.4971C89.7186 34.4971 89.6177 34.4873 89.52 34.4678C89.4256 34.4515 89.3361 34.4336 89.2515 34.4141L89.2466 33.5156C89.2791 33.5189 89.3182 33.5221 89.3638 33.5254C89.4126 33.5286 89.4517 33.5303 89.481 33.5303C89.6763 33.5303 89.839 33.5059 89.9692 33.457C90.0994 33.4115 90.2052 33.3366 90.2866 33.2324C90.3713 33.1283 90.4429 32.9883 90.5015 32.8125L90.8823 31.7871ZM90.0718 27.0801L91.3267 31.0352L91.5366 32.2754L90.7212 32.4854L88.8022 27.0801H90.0718ZM97.2153 30.9326C97.2153 30.8154 97.186 30.7096 97.1274 30.6152C97.0688 30.5176 96.9565 30.4297 96.7905 30.3516C96.6278 30.2734 96.3869 30.2018 96.0679 30.1367C95.7879 30.0749 95.5308 30.0016 95.2964 29.917C95.0653 29.8291 94.8667 29.7233 94.7007 29.5996C94.5347 29.4759 94.4061 29.3294 94.3149 29.1602C94.2238 28.9909 94.1782 28.7956 94.1782 28.5742C94.1782 28.3594 94.2254 28.1559 94.3198 27.9639C94.4142 27.7718 94.5493 27.6025 94.7251 27.4561C94.9009 27.3096 95.1141 27.194 95.3647 27.1094C95.6187 27.0247 95.9019 26.9824 96.2144 26.9824C96.6571 26.9824 97.0363 27.0573 97.3521 27.207C97.6711 27.3535 97.9152 27.5537 98.0845 27.8076C98.2537 28.0583 98.3384 28.3415 98.3384 28.6572H97.1616C97.1616 28.5173 97.1258 28.387 97.0542 28.2666C96.9858 28.1429 96.8817 28.0436 96.7417 27.9688C96.6017 27.8906 96.4259 27.8516 96.2144 27.8516C96.0125 27.8516 95.8449 27.8841 95.7114 27.9492C95.5812 28.0111 95.4836 28.0924 95.4185 28.1934C95.3566 28.2943 95.3257 28.4049 95.3257 28.5254C95.3257 28.6133 95.342 28.693 95.3745 28.7646C95.4103 28.833 95.4689 28.8965 95.5503 28.9551C95.6317 29.0104 95.7424 29.0625 95.8823 29.1113C96.0256 29.1602 96.2046 29.2074 96.4194 29.2529C96.8231 29.3376 97.1698 29.4466 97.4595 29.5801C97.7524 29.7103 97.9771 29.8796 98.1333 30.0879C98.2896 30.293 98.3677 30.5534 98.3677 30.8691C98.3677 31.1035 98.3172 31.3184 98.2163 31.5137C98.1187 31.7057 97.9754 31.8734 97.7866 32.0166C97.5978 32.1566 97.3716 32.2656 97.1079 32.3438C96.8475 32.4219 96.5545 32.4609 96.229 32.4609C95.7505 32.4609 95.3452 32.3763 95.0132 32.207C94.6812 32.0345 94.4289 31.8148 94.2563 31.5479C94.0871 31.2777 94.0024 30.9977 94.0024 30.708H95.1401C95.1532 30.9261 95.2134 31.1003 95.3208 31.2305C95.4315 31.3574 95.5682 31.4502 95.731 31.5088C95.897 31.5641 96.0679 31.5918 96.2437 31.5918C96.4552 31.5918 96.6326 31.5641 96.7759 31.5088C96.9191 31.4502 97.0282 31.3721 97.103 31.2744C97.1779 31.1735 97.2153 31.0596 97.2153 30.9326ZM101.82 27.0801V27.9395H98.8413V27.0801H101.82ZM99.7007 25.7861H100.877V30.9033C100.877 31.0661 100.9 31.1914 100.946 31.2793C100.995 31.3639 101.061 31.4209 101.146 31.4502C101.231 31.4795 101.33 31.4941 101.444 31.4941C101.525 31.4941 101.603 31.4893 101.678 31.4795C101.753 31.4697 101.813 31.46 101.859 31.4502L101.864 32.3486C101.766 32.3779 101.652 32.404 101.522 32.4268C101.395 32.4495 101.249 32.4609 101.083 32.4609C100.812 32.4609 100.573 32.4137 100.365 32.3193C100.156 32.2217 99.9937 32.0638 99.8765 31.8457C99.7593 31.6276 99.7007 31.3379 99.7007 30.9766V25.7861ZM102.386 29.7803V29.668C102.386 29.2871 102.442 28.9339 102.552 28.6084C102.663 28.2796 102.822 27.9948 103.031 27.7539C103.242 27.5098 103.5 27.321 103.802 27.1875C104.108 27.0508 104.453 26.9824 104.837 26.9824C105.225 26.9824 105.57 27.0508 105.873 27.1875C106.179 27.321 106.437 27.5098 106.649 27.7539C106.861 27.9948 107.022 28.2796 107.132 28.6084C107.243 28.9339 107.298 29.2871 107.298 29.668V29.7803C107.298 30.1611 107.243 30.5143 107.132 30.8398C107.022 31.1654 106.861 31.4502 106.649 31.6943C106.437 31.9352 106.18 32.124 105.877 32.2607C105.575 32.3942 105.231 32.4609 104.847 32.4609C104.46 32.4609 104.113 32.3942 103.807 32.2607C103.504 32.124 103.247 31.9352 103.036 31.6943C102.824 31.4502 102.663 31.1654 102.552 30.8398C102.442 30.5143 102.386 30.1611 102.386 29.7803ZM103.563 29.668V29.7803C103.563 30.0179 103.587 30.2425 103.636 30.4541C103.685 30.6657 103.762 30.8512 103.866 31.0107C103.97 31.1702 104.103 31.2956 104.266 31.3867C104.429 31.4779 104.623 31.5234 104.847 31.5234C105.065 31.5234 105.254 31.4779 105.414 31.3867C105.576 31.2956 105.71 31.1702 105.814 31.0107C105.918 30.8512 105.995 30.6657 106.043 30.4541C106.096 30.2425 106.122 30.0179 106.122 29.7803V29.668C106.122 29.4336 106.096 29.2122 106.043 29.0039C105.995 28.7923 105.917 28.6051 105.809 28.4424C105.705 28.2796 105.571 28.1527 105.409 28.0615C105.249 27.9671 105.059 27.9199 104.837 27.9199C104.616 27.9199 104.424 27.9671 104.261 28.0615C104.102 28.1527 103.97 28.2796 103.866 28.4424C103.762 28.6051 103.685 28.7923 103.636 29.0039C103.587 29.2122 103.563 29.4336 103.563 29.668ZM109.466 28.0859V32.3633H108.29V27.0801H109.413L109.466 28.0859ZM111.083 27.0459L111.073 28.1396C111.001 28.1266 110.923 28.1169 110.838 28.1104C110.757 28.1038 110.676 28.1006 110.594 28.1006C110.392 28.1006 110.215 28.1299 110.062 28.1885C109.909 28.2438 109.78 28.3252 109.676 28.4326C109.575 28.5368 109.497 28.6637 109.442 28.8135C109.387 28.9632 109.354 29.1309 109.344 29.3164L109.076 29.3359C109.076 29.0039 109.108 28.6963 109.173 28.4131C109.238 28.1299 109.336 27.8809 109.466 27.666C109.6 27.4512 109.766 27.2835 109.964 27.1631C110.166 27.0426 110.399 26.9824 110.663 26.9824C110.734 26.9824 110.811 26.9889 110.892 27.002C110.977 27.015 111.04 27.0296 111.083 27.0459ZM114.051 32.4609C113.661 32.4609 113.307 32.3975 112.992 32.2705C112.679 32.1403 112.412 31.9596 112.191 31.7285C111.973 31.4974 111.805 31.2256 111.688 30.9131C111.571 30.6006 111.512 30.2637 111.512 29.9023V29.707C111.512 29.2936 111.572 28.9193 111.693 28.584C111.813 28.2487 111.981 27.9622 112.196 27.7246C112.411 27.4837 112.665 27.2998 112.958 27.1729C113.25 27.0459 113.568 26.9824 113.91 26.9824C114.287 26.9824 114.618 27.0459 114.901 27.1729C115.184 27.2998 115.418 27.4788 115.604 27.71C115.793 27.9378 115.933 28.2096 116.024 28.5254C116.118 28.8411 116.166 29.1895 116.166 29.5703V30.0732H112.083V29.2285H115.003V29.1357C114.997 28.9242 114.955 28.7256 114.876 28.54C114.802 28.3545 114.686 28.2048 114.53 28.0908C114.374 27.9769 114.165 27.9199 113.905 27.9199C113.709 27.9199 113.535 27.9622 113.382 28.0469C113.233 28.1283 113.107 28.2471 113.006 28.4033C112.905 28.5596 112.827 28.7484 112.772 28.9697C112.72 29.1878 112.694 29.4336 112.694 29.707V29.9023C112.694 30.1335 112.725 30.3483 112.787 30.5469C112.852 30.7422 112.946 30.9131 113.07 31.0596C113.194 31.2061 113.343 31.3216 113.519 31.4062C113.695 31.4876 113.895 31.5283 114.12 31.5283C114.403 31.5283 114.655 31.4714 114.876 31.3574C115.098 31.2435 115.29 31.0824 115.453 30.874L116.073 31.4746C115.959 31.6406 115.811 31.8001 115.628 31.9531C115.446 32.1029 115.223 32.2249 114.959 32.3193C114.699 32.4137 114.396 32.4609 114.051 32.4609Z" fill="black"/>
<path d="M23.6164 22.5224L26.4619 19.9365L17.271 15.2423C16.6619 14.9432 16.0912 14.9012 15.5909 15.2283L23.6164 22.5224ZM26.9469 25.5498L29.905 24.0378C30.4824 23.744 30.799 23.3278 30.799 22.866C30.799 22.4052 30.4824 21.9881 29.906 21.6942L27.2279 20.3274L24.213 23.0663L26.9469 25.5498ZM15.0962 15.864C15.0346 16.0363 15 16.2287 15 16.4394V29.2988C15 29.6319 15.0808 29.9188 15.2271 30.147L23.0188 23.0654L15.0962 15.864ZM23.6164 23.6076L15.868 30.6498C16.0162 30.7014 16.1759 30.7285 16.3443 30.7285C16.6446 30.7285 16.9573 30.6481 17.2758 30.4872L26.1819 25.9425L23.6164 23.6076Z" fill="black"/>
</svg>
