<svg width="54" height="57" viewBox="0 0 54 57" fill="none" xmlns="http://www.w3.org/2000/svg">
<rect width="53.1262" height="57" rx="20" fill="#F6E0DB"/>
<path d="M38.7143 15H15.8571C14.2857 15 13.0143 16.2186 13.0143 17.708L13 33.956C13 35.4454 14.2857 36.664 15.8571 36.664H27.2857V33.956H15.8571V20.416L27.2857 27.186L38.7143 20.416V27.186H41.5714V17.708C41.5714 16.2186 40.2857 15 38.7143 15ZM27.2857 24.478L15.8571 17.708H38.7143L27.2857 24.478ZM34.9143 39.3719L29.8571 34.5788L31.8714 32.6697L34.9 35.5401L40.9571 29.7992L43 31.7083L34.9143 39.3719Z" fill="black" fill-opacity="0.5"/>
</svg>
