<svg width="54" height="57" viewBox="0 0 54 57" fill="none" xmlns="http://www.w3.org/2000/svg">
<rect x="0.874023" width="53.1262" height="57" rx="20" fill="#F6E0DB"/>
<g opacity="0.7" clip-path="url(#clip0_88_934)">
<path d="M34.3175 22.7141L40.8223 25.093V37.4634L32.5435 34.6087L23.082 37.4634L14.8032 34.6087V22.2383L20.7167 24.1414L34.3175 22.7141ZM32.5435 34.6087V27.9477V34.6087ZM23.082 37.4634V27.9477V37.4634ZM27.8128 32.0137C27.8128 32.0137 20.7167 27.4719 20.7167 23.1899C20.7167 19.6215 24.2647 17.4805 27.8128 17.4805C31.3608 17.4805 34.9089 19.6215 34.9089 23.1899C34.9089 27.4719 27.8128 32.0137 27.8128 32.0137ZM28.9955 23.1899C28.9955 22.9375 28.8708 22.6955 28.6491 22.517C28.4273 22.3386 28.1264 22.2383 27.8128 22.2383C27.4991 22.2383 27.1983 22.3386 26.9765 22.517C26.7547 22.6955 26.6301 22.9375 26.6301 23.1899C26.6301 23.4422 26.7547 23.6843 26.9765 23.8627C27.1983 24.0412 27.4991 24.1414 27.8128 24.1414C28.1264 24.1414 28.4273 24.0412 28.6491 23.8627C28.8708 23.6843 28.9955 23.4422 28.9955 23.1899Z" stroke="#585858" stroke-width="2"/>
</g>
<defs>
<clipPath id="clip0_88_934">
<rect width="28.3845" height="22.8376" fill="white" transform="translate(13.6206 16.5293)"/>
</clipPath>
</defs>
</svg>
