<svg width="54" height="57" viewBox="0 0 54 57" fill="none" xmlns="http://www.w3.org/2000/svg">
<rect width="53.1262" height="57" rx="20" fill="#F6E0DB"/>
<path d="M37.9077 40.3718H37.7163C15.5906 39.3126 12.4491 23.7709 12.0099 19.0277C11.9413 18.2842 12.2303 17.5483 12.8133 16.9821C13.3963 16.4159 14.2256 16.0657 15.1188 16.0084C15.2081 16.0028 15.2978 16 15.3879 16H21.3219C21.7729 15.9996 22.2137 16.112 22.5871 16.3226C22.9605 16.5332 23.2493 16.8323 23.4162 17.1811L25.1277 20.6869C25.2925 21.0277 25.3334 21.4012 25.2453 21.7612C25.1572 22.1212 24.9441 22.4517 24.6323 22.7116L22.2339 24.727C22.607 26.4999 23.6261 28.1343 25.1529 29.4087C26.6796 30.6831 28.6403 31.5358 30.7689 31.8511L33.2123 29.8357C33.5293 29.579 33.93 29.4057 34.3645 29.3373C34.799 29.269 35.2481 29.3087 35.6557 29.4514L39.9007 30.8668C40.3134 31.0101 40.6655 31.2525 40.9121 31.563C41.1588 31.8735 41.2888 32.2381 41.2857 32.6103V37.5597C41.2857 38.3055 40.9298 39.0208 40.2963 39.5482C39.6628 40.0756 38.8036 40.3718 37.9077 40.3718ZM15.3879 17.8748C15.24 17.8744 15.0935 17.8983 14.9567 17.945C14.82 17.9918 14.6956 18.0605 14.5907 18.1473C14.4858 18.2341 14.4025 18.3372 14.3455 18.4508C14.2885 18.5644 14.259 18.6862 14.2585 18.8093C14.2585 18.8356 14.2597 18.8615 14.2619 18.8871C14.7799 24.4364 18.1015 37.5597 37.8401 38.4971C38.1381 38.5119 38.4311 38.4277 38.6544 38.2628C38.8778 38.0979 39.0134 37.8659 39.0314 37.6178L39.0337 37.5597V32.6103L34.7887 31.1949L31.5571 33.8664L31.0166 33.8102C21.2205 32.7884 19.8919 24.6333 19.8919 24.5489L19.8243 24.0989L23.0221 21.4087L21.3331 17.8748H15.3879Z" fill="black" fill-opacity="0.7"/>
<path d="M35.4288 23.9896H33.4764C33.4756 23.3647 33.1669 22.7656 32.6178 22.3238C32.0688 21.8819 31.3243 21.6334 30.5479 21.6328V20.0615C31.8419 20.0628 33.0825 20.477 33.9975 21.2134C34.9125 21.9498 35.4273 22.9482 35.4288 23.9896Z" fill="black"/>
<path d="M40.3096 23.0712H38.3573C38.3552 21.613 37.6346 20.2151 36.3535 19.1841C35.0725 18.153 33.3356 17.573 31.5239 17.5714V16C33.8532 16.0021 36.0864 16.7477 37.7335 18.0734C39.3806 19.399 40.3071 21.1964 40.3096 23.0712Z" fill="black"/>
</svg>
